<?xml version="1.0" standalone="no"?><!DOCTYPE svg PUBLIC "-//W3C//DTD SVG 1.1//EN" "http://www.w3.org/Graphics/SVG/1.1/DTD/svg11.dtd"><svg class="icon" height="512" viewBox="0 0 1024 1024" version="1.1" xmlns="http://www.w3.org/2000/svg"><path d="M512 989.866667c-263.918933 0-477.866667-213.947733-477.866667-477.866667S248.081067 34.133333 512 34.133333s477.866667 213.947733 477.866667 477.866667-213.947733 477.866667-477.866667 477.866667z m215.026347-631.466667a43.4176 43.4176 0 0 0 0-61.426347 43.4176 43.4176 0 0 0-61.426347 0L512 450.566827 358.4 296.973653a43.424427 43.424427 0 0 0-61.433173 0 43.4176 43.4176 0 0 0 0 61.426347l153.6 153.6-153.6 153.6a43.4176 43.4176 0 0 0 0 61.426347 43.424427 43.424427 0 0 0 61.433173 0L512 573.433173l153.6 153.593174a43.4176 43.4176 0 0 0 61.426347 0 43.4176 43.4176 0 0 0 0-61.426347L573.433173 512l153.593174-153.6z" fill="#FF4940" /></svg>